<?xml version="1.0" encoding="utf-8"?>
<!-- Generator: Adobe Illustrator 26.0.3, SVG Export Plug-In . SVG Version: 6.00 Build 0)  -->
<svg version="1.1" id="Layer_1" xmlns="http://www.w3.org/2000/svg" xmlns:xlink="http://www.w3.org/1999/xlink" x="0px" y="0px"
	 viewBox="0 0 1746.2 372.7" style="enable-background:new 0 0 1746.2 372.7;" xml:space="preserve">
<style type="text/css">
	.st0{fill:#FFFFFF;}
</style>
<g>
	<rect x="1138.26" y="176.99" class="st0" width="117.69" height="19.71"/>
	<rect x="1000.86" y="176.99" class="st0" width="117.69" height="19.71"/>
	<rect x="1118.56" y="59.29" class="st0" width="19.71" height="117.69"/>
	<rect x="1118.55" y="196.69" class="st0" width="19.71" height="117.69"/>
	<path class="st0" d="M301.89,336.09l-10.27-53.48c-20.54,39.79-52.62,59.47-96.26,59.47c-42.36,0-76.58-14.55-103.11-44.07
		c-26.1-29.52-39.36-66.74-39.36-111.66c0-44.07,14.12-80.86,42.78-110.81c28.66-29.95,62.89-44.92,102.68-44.92
		c55.19,0,100.11,26.95,123.64,72.73l-24.38,17.54C274.93,78.96,241.56,58,197.92,58c-30.38,0-56.9,12.41-79.15,36.79
		c-22.25,24.39-33.37,55.19-33.37,91.56c0,38.07,9.84,68.88,29.95,92.84c20.11,23.53,47.06,35.51,80.43,35.51
		c26.95,0,49.2-9.41,65.89-27.81c16.69-18.4,26.95-42.36,30.8-71.88H185.52v-26.53h138.62v147.6H301.89z"/>
	<polygon class="st0" points="671.12,36.61 671.12,336.09 641.17,336.09 641.17,93.08 624.92,135.01 542.34,336.09 508.97,336.09 
		426.4,135.01 410.14,93.08 410.14,336.09 380.19,336.09 380.19,36.61 415.28,36.61 525.66,310 636.04,36.61 	"/>
	<path class="st0" d="M848.69,167.95c64.17,11.12,96.26,39.36,96.26,84.71c0,25.24-10.27,46.63-30.38,63.75
		c-20.11,17.11-45.78,25.67-77.01,25.67c-32.51,0-59.47-8.56-80.43-25.67c-20.97-17.54-33.8-39.36-38.51-66.32l28.24-15.4
		c8.13,51.77,40.22,80,89.85,80c23.53,0,41.93-5.99,55.62-17.54c14.12-11.98,20.97-26.1,20.97-41.93c0-34.23-26.95-52.2-81.72-62.89
		c-65.46-12.41-98.4-40.65-98.4-84.71c0-22.67,9.41-41.07,27.81-55.19c18.4-14.55,41.93-21.82,70.17-21.82
		c53.05,0,93.27,28.66,108.24,71.88l-25.67,14.55c-13.69-37.65-42.36-59.9-81.72-59.9c-39.79,0-68.88,19.68-68.88,50.91
		C763.12,138,791.79,158.11,848.69,167.95z"/>
	<polygon class="st0" points="1311.86,86.34 1333.47,86.34 1333.47,268.07 1398.29,268.07 1398.29,286.35 1311.86,286.35 	"/>
	<path class="st0" d="M1453.42,86.34h29.92l44.05,200.01h-21.61l-11.91-59.28h-50.97l-11.91,59.28h-21.61L1453.42,86.34z
		 M1468.1,101.3l-22.16,107.48h44.88l-22.16-107.48H1468.1z"/>
	<path class="st0" d="M1543.75,286.36l61.28-200.01h53.19c14.77,0,24.95,4.48,30.51,13.43c5.56,8.96,6.06,20.91,1.47,35.88
		c-7.24,23.64-21.93,38.41-44.05,44.32l-0.17,0.56c21.41,6.09,27.89,22.9,19.46,50.41c-11.32,36.94-38.4,55.4-81.24,55.4H1543.75z
		 M1594.73,190.51l-23.76,77.56h21.6c26.6,0,43.68-12.37,51.27-37.12c8.26-26.96-0.91-40.44-27.5-40.44H1594.73z M1621.04,104.63
		l-20.71,67.59h12.19c15.88,0,28.18-2.77,36.9-8.31c8.71-5.54,15.11-14.96,19.18-28.26c3.45-11.26,3.17-19.25-0.83-23.96
		c-4.01-4.71-12.38-7.07-25.12-7.07H1621.04z"/>
</g>
</svg>
