<?xml version="1.0" encoding="utf-8"?>
<!-- Generator: Adobe Illustrator 26.0.3, SVG Export Plug-In . SVG Version: 6.00 Build 0)  -->
<svg version="1.1" id="Layer_1" xmlns="http://www.w3.org/2000/svg" xmlns:xlink="http://www.w3.org/1999/xlink" x="0px" y="0px"
	 viewBox="0 0 326.34 89.35" style="enable-background:new 0 0 326.34 89.35;" xml:space="preserve">
<style type="text/css">
	.st0{fill:#FFFFFF;}
</style>
<rect x="292.44" y="42.17" class="st0" width="31.45" height="5.27"/>
<rect x="255.72" y="42.17" class="st0" width="31.45" height="5.27"/>
<rect x="287.17" y="10.72" class="st0" width="5.27" height="31.45"/>
<rect x="287.17" y="47.44" class="st0" width="5.27" height="31.45"/>
<path class="st0" d="M68.94,84.69L66.19,70.4C60.7,81.03,52.13,86.29,40.47,86.29c-11.32,0-20.46-3.89-27.55-11.78
	C5.94,66.63,2.4,56.68,2.4,44.68c0-11.78,3.77-21.61,11.43-29.61c7.66-8,16.81-12,27.44-12c14.75,0,26.75,7.2,33.04,19.44
	l-6.52,4.69c-6.06-11.2-14.98-16.81-26.64-16.81c-8.12,0-15.21,3.31-21.15,9.83s-8.92,14.75-8.92,24.47c0,10.18,2.63,18.41,8,24.81
	c5.37,6.29,12.58,9.49,21.49,9.49c7.2,0,13.15-2.52,17.61-7.43c4.46-4.92,7.2-11.32,8.23-19.21H37.84v-7.09h37.04v39.44H68.94z"/>
<polygon class="st0" points="167.61,4.66 167.61,84.69 159.6,84.69 159.6,19.75 155.26,30.96 133.19,84.69 124.27,84.69 
	102.21,30.96 97.86,19.75 97.86,84.69 89.86,84.69 89.86,4.66 99.24,4.66 128.73,77.72 158.23,4.66 "/>
<path class="st0" d="M215.06,39.76c17.15,2.97,25.72,10.52,25.72,22.64c0,6.74-2.74,12.46-8.12,17.03
	c-5.37,4.57-12.23,6.86-20.58,6.86c-8.69,0-15.89-2.29-21.49-6.86c-5.6-4.69-9.03-10.52-10.29-17.72l7.55-4.12
	c2.17,13.83,10.75,21.38,24.01,21.38c6.29,0,11.2-1.6,14.86-4.69c3.77-3.2,5.6-6.97,5.6-11.2c0-9.15-7.2-13.95-21.84-16.81
	c-17.49-3.31-26.29-10.86-26.29-22.64c0-6.06,2.51-10.98,7.43-14.75c4.92-3.89,11.2-5.83,18.75-5.83c14.18,0,24.92,7.66,28.92,19.21
	l-6.86,3.89c-3.66-10.06-11.32-16.01-21.84-16.01c-10.63,0-18.41,5.26-18.41,13.6C192.19,31.76,199.85,37.13,215.06,39.76"/>
</svg>
